# This file uses centimeters as units for non-parametric coordinates.

mtllib chip.mtl
g default
v 2.041115 5.401532 0.585303
v -1.921734 4.851975 -1.557578
v 2.052031 5.397449 0.566163
v -1.910818 4.847892 -1.576718
v 2.105536 6.016480 0.464641
v -1.857312 5.466923 -1.678241
v 2.094620 6.020562 0.483780
v -1.868228 5.471005 -1.659101
vt 0.375000 0.000000
vt 0.625000 0.000000
vt 0.375000 0.250000
vt 0.625000 0.250000
vt 0.375000 0.500000
vt 0.625000 0.500000
vt 0.375000 0.750000
vt 0.625000 0.750000
vt 0.375000 1.000000
vt 0.625000 1.000000
vt 0.875000 0.000000
vt 0.875000 0.250000
vt 0.125000 0.000000
vt 0.125000 0.250000
vn 0.017405 -0.975780 0.218059
vn 0.017405 -0.975780 0.218059
vn 0.017405 -0.975780 0.218059
vn 0.017405 -0.975780 0.218059
vn 0.487124 -0.182182 -0.854120
vn 0.487124 -0.182182 -0.854120
vn 0.487124 -0.182182 -0.854120
vn 0.487124 -0.182182 -0.854120
vn -0.017405 0.975780 -0.218059
vn -0.017405 0.975780 -0.218059
vn -0.017405 0.975780 -0.218059
vn -0.017405 0.975780 -0.218059
vn -0.487124 0.182182 0.854120
vn -0.487124 0.182182 0.854120
vn -0.487124 0.182182 0.854120
vn -0.487124 0.182182 0.854120
vn -0.869188 -0.005963 -0.494446
vn -0.869188 -0.005963 -0.494446
vn -0.869188 -0.005963 -0.494446
vn -0.869188 -0.005963 -0.494446
vn 0.869188 0.005963 0.494446
vn 0.869188 0.005963 0.494446
vn 0.869188 0.005963 0.494446
vn 0.869188 0.005963 0.494446
s off
g pasted__pasted__pCube1 group10 group9 group7 group5
usemtl surfaceShader2SG
f 1/1/1 2/2/2 4/4/3 3/3/4
f 3/3/5 4/4/6 6/6/7 5/5/8
f 5/5/9 6/6/10 8/8/11 7/7/12
f 7/7/13 8/8/14 2/10/15 1/9/16
f 2/2/17 8/11/18 6/12/19 4/4/20
f 7/13/21 1/1/22 3/3/23 5/14/24
g default
v 2.085339 6.049665 0.499744
v -1.884038 5.424570 -1.630748
v 2.119109 6.037035 0.440533
v -1.850268 5.411940 -1.689960
v 2.275425 7.845526 0.143935
v -1.642246 7.818650 -2.084668
v 2.241655 7.858156 0.203147
v -1.676016 7.831279 -2.025456
vt 0.375000 0.000000
vt 0.625000 0.000000
vt 0.375000 0.250000
vt 0.625000 0.250000
vt 0.375000 0.500000
vt 0.625000 0.500000
vt 0.375000 0.750000
vt 0.625000 0.750000
vt 0.375000 1.000000
vt 0.625000 1.000000
vt 0.875000 0.000000
vt 0.875000 0.250000
vt 0.125000 0.000000
vt 0.125000 0.250000
vn 0.032050 -0.973612 0.225948
vn 0.032050 -0.973612 0.225948
vn 0.032050 -0.973612 0.225948
vn 0.032050 -0.973612 0.225948
vn 0.487123 -0.182182 -0.854120
vn 0.487123 -0.182182 -0.854120
vn 0.487123 -0.182182 -0.854120
vn 0.487123 -0.182182 -0.854120
vn 0.084986 0.983247 -0.161255
vn 0.084986 0.983247 -0.161255
vn 0.084986 0.983247 -0.161255
vn 0.084986 0.983247 -0.161255
vn -0.487123 0.182182 0.854120
vn -0.487123 0.182182 0.854120
vn -0.487123 0.182182 0.854120
vn -0.487123 0.182182 0.854120
vn -0.869188 -0.005963 -0.494446
vn -0.869188 -0.005963 -0.494446
vn -0.869188 -0.005963 -0.494446
vn -0.869188 -0.005963 -0.494446
vn 0.869188 0.005963 0.494446
vn 0.869188 0.005963 0.494446
vn 0.869188 0.005963 0.494446
vn 0.869188 0.005963 0.494446
s off
g group10 group9 group7 group5 pasted__pasted__pCube2
usemtl initialShadingGroup
f 9/15/25 10/16/26 12/18/27 11/17/28
f 11/17/29 12/18/30 14/20/31 13/19/32
f 13/19/33 14/20/34 16/22/35 15/21/36
f 15/21/37 16/22/38 10/24/39 9/23/40
f 10/16/41 16/25/42 14/26/43 12/18/44
f 15/27/45 9/15/46 11/17/47 13/28/48
g default
v 1.571166 0.100939 1.475353
v -2.346505 0.074063 -0.753249
v 1.604936 0.088309 1.416141
v -2.312735 0.061433 -0.812461
v 1.761251 1.896801 1.119543
v -2.092661 2.607583 -1.230038
v 1.727481 1.909430 1.178755
v -2.126431 2.620212 -1.170826
vt 0.375000 0.000000
vt 0.625000 0.000000
vt 0.375000 0.250000
vt 0.625000 0.250000
vt 0.375000 0.500000
vt 0.625000 0.500000
vt 0.375000 0.750000
vt 0.625000 0.750000
vt 0.375000 1.000000
vt 0.625000 1.000000
vt 0.875000 0.000000
vt 0.875000 0.250000
vt 0.125000 0.000000
vt 0.125000 0.250000
vn -0.084986 -0.983247 0.161255
vn -0.084986 -0.983247 0.161255
vn -0.084986 -0.983247 0.161255
vn -0.084986 -0.983247 0.161255
vn 0.487124 -0.182182 -0.854120
vn 0.487124 -0.182182 -0.854120
vn 0.487123 -0.182182 -0.854120
vn 0.487124 -0.182182 -0.854120
vn 0.226544 0.970882 -0.077884
vn 0.226544 0.970882 -0.077884
vn 0.226544 0.970882 -0.077884
vn 0.226544 0.970882 -0.077884
vn -0.487124 0.182182 0.854120
vn -0.487123 0.182182 0.854120
vn -0.487124 0.182182 0.854120
vn -0.487124 0.182182 0.854120
vn -0.869188 -0.005963 -0.494446
vn -0.869188 -0.005963 -0.494446
vn -0.869188 -0.005963 -0.494446
vn -0.869188 -0.005963 -0.494446
vn 0.869188 0.005963 0.494446
vn 0.869188 0.005963 0.494446
vn 0.869188 0.005963 0.494446
vn 0.869188 0.005963 0.494446
s off
g group10 group9 group7 group5 pCube1
usemtl initialShadingGroup
f 17/29/49 18/30/50 20/32/51 19/31/52
f 19/31/53 20/32/54 22/34/55 21/33/56
f 21/33/57 22/34/58 24/36/59 23/35/60
f 23/35/61 24/36/62 18/38/63 17/37/64
f 18/30/65 24/39/66 22/40/67 20/32/68
f 23/41/69 17/29/70 19/31/71 21/42/72
g default
v 1.735153 1.861712 1.165844
v -2.121267 2.543474 -1.178977
v 1.746069 1.857629 1.146704
v -2.110351 2.539391 -1.198117
v 1.799575 2.476659 1.045182
v -2.056846 3.158421 -1.299640
v 1.788659 2.480742 1.064321
v -2.067762 3.162504 -1.280500
vt 0.375000 0.000000
vt 0.625000 0.000000
vt 0.375000 0.250000
vt 0.625000 0.250000
vt 0.375000 0.500000
vt 0.625000 0.500000
vt 0.375000 0.750000
vt 0.625000 0.750000
vt 0.375000 1.000000
vt 0.625000 1.000000
vt 0.875000 0.000000
vt 0.875000 0.250000
vt 0.125000 0.000000
vt 0.125000 0.250000
vn -0.221160 -0.971854 0.081163
vn -0.221160 -0.971854 0.081163
vn -0.221160 -0.971854 0.081163
vn -0.221160 -0.971854 0.081163
vn 0.487124 -0.182182 -0.854120
vn 0.487124 -0.182182 -0.854120
vn 0.487124 -0.182182 -0.854120
vn 0.487124 -0.182182 -0.854120
vn 0.221160 0.971854 -0.081163
vn 0.221160 0.971854 -0.081163
vn 0.221160 0.971854 -0.081163
vn 0.221160 0.971854 -0.081163
vn -0.487124 0.182182 0.854120
vn -0.487124 0.182182 0.854120
vn -0.487124 0.182182 0.854120
vn -0.487124 0.182182 0.854120
vn -0.869188 -0.005963 -0.494446
vn -0.869188 -0.005963 -0.494446
vn -0.869188 -0.005963 -0.494446
vn -0.869188 -0.005963 -0.494446
vn 0.869188 0.005963 0.494446
vn 0.869188 0.005963 0.494446
vn 0.869188 0.005963 0.494446
vn 0.869188 0.005963 0.494446
s off
g group10 group9 group7 group5 pasted__pasted__pasted__pCube1
usemtl surfaceShader2SG
f 25/43/73 26/44/74 28/46/75 27/45/76
f 27/45/77 28/46/78 30/48/79 29/47/80
f 29/47/81 30/48/82 32/50/83 31/49/84
f 31/49/85 32/50/86 26/52/87 25/51/88
f 26/44/89 32/53/90 30/54/91 28/46/92
f 31/55/93 25/43/94 27/45/95 29/56/96
g default
v 1.775000 2.459199 1.088592
v -2.082909 3.123731 -1.253404
v 1.808770 2.446569 1.029380
v -2.049140 3.111101 -1.312616
v 2.067866 5.444177 0.537763
v -1.892824 4.919592 -1.609214
v 2.034096 5.456807 0.596975
v -1.926594 4.932222 -1.550002
vt 0.375000 0.000000
vt 0.625000 0.000000
vt 0.375000 0.250000
vt 0.625000 0.250000
vt 0.375000 0.500000
vt 0.625000 0.500000
vt 0.375000 0.750000
vt 0.625000 0.750000
vt 0.375000 1.000000
vt 0.625000 1.000000
vt 0.875000 0.000000
vt 0.875000 0.250000
vt 0.125000 0.000000
vt 0.125000 0.250000
vn -0.217953 -0.972414 0.083111
vn -0.217953 -0.972414 0.083111
vn -0.217953 -0.972414 0.083111
vn -0.217953 -0.972414 0.083111
vn 0.487124 -0.182182 -0.854120
vn 0.487124 -0.182182 -0.854120
vn 0.487124 -0.182182 -0.854120
vn 0.487123 -0.182182 -0.854120
vn -0.012549 0.976439 -0.215430
vn -0.012549 0.976439 -0.215430
vn -0.012549 0.976439 -0.215430
vn -0.012549 0.976439 -0.215430
vn -0.487123 0.182182 0.854120
vn -0.487124 0.182182 0.854120
vn -0.487124 0.182182 0.854120
vn -0.487124 0.182182 0.854120
vn -0.869188 -0.005963 -0.494446
vn -0.869188 -0.005963 -0.494446
vn -0.869188 -0.005963 -0.494446
vn -0.869188 -0.005963 -0.494446
vn 0.869188 0.005963 0.494446
vn 0.869188 0.005963 0.494446
vn 0.869188 0.005963 0.494446
vn 0.869188 0.005963 0.494446
s off
g group10 group9 group7 group5 pasted__pCube1
usemtl blinn6SG
f 33/57/97 34/58/98 36/60/99 35/59/100
f 35/59/101 36/60/102 38/62/103 37/61/104
f 37/61/105 38/62/106 40/64/107 39/63/108
f 39/63/109 40/64/110 34/66/111 33/65/112
f 34/58/113 40/67/114 38/68/115 36/60/116
f 39/69/117 33/57/118 35/59/119 37/70/120
